
<svg xmlns="http://www.w3.org/2000/svg" viewBox="-15 0 185 25.5">
	<defs><style>
		.cls-1{fill:#eaedff;}.cls-2{fill:#5973ff;}.cls-3{fill:none;}

		.c{
			animation: c 7s ease 0s infinite;
			transform-origin: center;
			transform-box: fill-box;
		}
		@keyframes c{
			20%,40%,60%,80%{
				transform: rotate(0deg);
			}
			27%,33%{
				transform: rotate(-45deg);
			}
			67%,73%{
				transform: rotate(45deg);
			}
		}
	</style></defs>
	<title>logotype</title>
	
	
	<g class="container">
		<polygon class="cls-2" points="6.59 13.76 6.58 13.76 2.81 9.99 6.58 6.22 6.59 6.22 6.59 3.41 3.41 6.58 3.41 6.58 0 9.99 5.18 15.17 5.18 15.17 6.59 16.58 6.59 13.76"/><path class="cls-2" d="M15.71,19a26.59,26.59,0,0,1-5.61-.77l.49-1.93s4,1,6.35.62,3.13-1.25,3.23-3c.07-1.26-.35-2.75-4.23-3.12-1.59-.15-3.83-.53-5-2a4,4,0,0,1-.77-3.12c.52-4.11,4.18-4.4,5.75-4.53a20.75,20.75,0,0,1,6.05.63l-.51,1.92A19,19,0,0,0,16,3c-2.35.19-3.67.69-3.94,2.8a2.08,2.08,0,0,0,.35,1.63c.55.69,1.75,1.11,3.67,1.29,2.86.27,6.23,1.4,6,5.2-.22,4.07-3.72,4.67-4.88,4.87A9.37,9.37,0,0,1,15.71,19Z"/>
		
		<g class="c">
			<path class="cls-1" d="M39.69,15a7,7,0,1,1,0-9.94h2.57a8.95,8.95,0,1,0,0,9.94Z"/><rect class="cls-2" x="41.28" y="8.46" width="3" height="3"/>
		</g>
		
		<path class="cls-1" d="M55.29,1.08a9,9,0,0,0-5.55,1.39V1.14h-2V19h2V5a7,7,0,0,1,8.91-.64l1.16-1.61A8.93,8.93,0,0,0,55.29,1.08Z"/><path class="cls-1" d="M70.72,16.95A7,7,0,1,1,74.89,4.42L70,9.29h0l-1.4,1.4h2.81l6.33-6.33-.7-.7a8.95,8.95,0,1,0-6.33,15.27A8.89,8.89,0,0,0,77,16.32l-1.41-1.41A6.91,6.91,0,0,1,70.72,16.95Z"/><path class="cls-1" d="M90.28,16.95A7,7,0,1,1,94.44,4.42L89.57,9.29h0l-1.4,1.4H91l6.33-6.33-.7-.7a8.95,8.95,0,1,0-6.33,15.27,8.89,8.89,0,0,0,6.33-2.62L95.2,14.91A6.91,6.91,0,0,1,90.28,16.95Z"/><path class="cls-1" d="M108.24,1.06a9,9,0,0,0-5,1.51V1.05h-2V25h2V17.44a8.95,8.95,0,1,0,5-16.38Zm0,15.91a7,7,0,0,1-5-2.11V5.15a7,7,0,1,1,5,11.81Z"/><path class="cls-1" d="M126.36,19a26.59,26.59,0,0,1-5.61-.77l.49-1.93s4,1,6.35.62,3.13-1.25,3.23-3c.07-1.26-.35-2.75-4.23-3.12-1.59-.15-3.83-.53-5-2a4,4,0,0,1-.77-3.12c.52-4.11,4.18-4.41,5.75-4.53a20.76,20.76,0,0,1,6.05.63l-.51,1.92A19,19,0,0,0,126.69,3c-2.35.19-3.67.69-3.94,2.8a2.08,2.08,0,0,0,.35,1.63c.55.69,1.75,1.11,3.67,1.29,2.86.27,6.23,1.4,6,5.2-.22,4.07-3.72,4.67-4.88,4.87A9.37,9.37,0,0,1,126.36,19Z"/><polygon class="cls-2" points="136.31 13.76 136.31 13.76 140.08 9.99 136.31 6.22 136.31 6.22 136.31 3.41 139.48 6.58 139.48 6.58 142.89 9.99 137.72 15.17 137.72 15.17 136.31 16.58 136.31 13.76"/><g><rect class="cls-2 line" x="143" y="17.02" width="11" height="2"/></g>
	</g>
</svg>
